<?xml version="1.0" standalone="no"?>
<!DOCTYPE svg PUBLIC "-//W3C//DTD SVG 20010904//EN"
 "http://www.w3.org/TR/2001/REC-SVG-20010904/DTD/svg10.dtd">
<svg version="1.0" xmlns="http://www.w3.org/2000/svg"
 width="633.000000pt" height="627.000000pt" viewBox="0 0 633.000000 627.000000"
 preserveAspectRatio="xMidYMid meet">

<g transform="translate(0.000000,627.000000) scale(0.100000,-0.100000)"
fill="#000000" stroke="none">
<path d="M2726 6245 c-257 -39 -425 -82 -639 -167 l-128 -50 3 -51 3 -52 345
0 345 0 3 -346 2 -346 167 -2 c92 -1 171 -5 175 -9 5 -5 7 -164 6 -353 l-3
-344 -177 -3 -178 -2 0 175 0 175 -172 2 -173 3 -3 351 -2 351 -93 5 c-50 3
-301 4 -557 1 l-465 -4 -162 -162 c-90 -89 -163 -167 -163 -174 0 -10 44 -13
190 -13 l190 0 0 -720 0 -720 180 0 180 0 0 -375 0 -375 180 0 181 0 -3 -190
-3 -190 348 0 347 0 0 185 0 185 -175 0 -175 0 0 196 0 197 -175 -7 -175 -7 0
190 0 191 525 0 525 0 0 185 0 185 180 0 180 0 0 175 0 175 180 0 180 0 0 185
0 185 180 0 180 0 0 175 0 175 180 0 180 0 0 388 0 387 -87 39 c-193 86 -494
167 -773 206 -207 30 -636 27 -854 -5z m1002 -750 c2 -236 0 -471 -3 -522 l-7
-92 -96 -3 c-54 -2 -134 -2 -179 0 l-83 3 0 349 0 350 -180 0 -180 0 0 175 0
174 363 -2 362 -2 3 -430z"/>
<path d="M4804 5577 c-2 -7 -3 -87 -2 -177 l3 -165 178 -3 177 -2 0 -70 0 -70
175 0 175 0 0 82 0 82 -172 168 -173 167 -178 1 c-136 0 -179 -3 -183 -13z"/>
<path d="M480 4798 c-87 -135 -96 -152 -129 -216 -128 -253 -227 -546 -275
-812 -18 -101 -46 -351 -46 -415 l0 -45 231 0 230 0 -7 600 -7 600 191 0 192
0 0 179 0 178 -82 6 c-46 4 -120 7 -164 7 l-81 0 -53 -82z"/>
<path d="M4804 4867 c-3 -8 -4 -169 -2 -358 l3 -344 678 -3 c372 -1 677 -1
677 1 0 10 -45 140 -72 206 -42 107 -146 312 -213 419 l-56 92 -150 0 -149 0
0 -162 c0 -90 -4 -168 -8 -174 -4 -8 -70 -14 -179 -19 l-173 -7 0 178 0 179
-175 3 c-146 3 -176 1 -181 -11z"/>
<path d="M4808 3598 l-3 -183 -177 -3 -176 -2 -7 -73 c-3 -39 -5 -121 -3 -182
l3 -110 178 1 177 0 0 -193 0 -193 360 0 360 0 0 -575 0 -575 173 0 c94 0 177
4 183 8 20 12 139 232 192 352 131 297 217 636 241 950 7 91 8 381 3 549 l-2
54 -397 -4 -398 -4 0 160 c-1 88 -2 170 -3 183 l-2 22 -350 0 -350 0 -2 -182z"/>
<path d="M3008 3023 c-1 -5 -2 -172 -2 -373 l-1 -365 -175 -3 -175 -2 0 -195
0 -195 173 0 172 0 0 -645 0 -645 180 0 180 0 0 95 0 95 103 0 c57 0 138 3
180 6 l77 7 0 178 0 179 180 0 180 0 0 360 0 360 178 2 177 3 0 200 0 200
-177 -3 -178 -3 0 190 0 191 -180 0 -180 0 0 185 0 185 -355 0 c-195 0 -356
-3 -357 -7z"/>
<path d="M34 2778 c20 -189 98 -510 172 -715 56 -154 111 -275 200 -434 l66
-119 196 2 197 3 0 195 0 195 -186 3 c-184 2 -187 3 -193 25 -3 12 -6 221 -6
465 l0 442 -226 0 -227 0 7 -62z"/>
<path d="M856 1105 c-4 -50 -3 -92 3 -102 5 -10 52 -60 103 -110 l93 -92 265
-1 265 -1 3 195 2 196 -363 0 -364 0 -7 -85z"/>
<path d="M4804 1177 c-2 -7 -3 -95 -2 -196 l3 -183 243 1 243 1 110 102 109
102 0 93 0 93 -350 0 c-276 0 -352 -3 -356 -13z"/>
<path d="M1592 618 l3 -183 180 -2 180 -2 3 -100 3 -101 37 -16 c205 -86 570
-172 869 -204 164 -18 580 -8 748 18 135 21 326 62 414 88 l51 15 0 134 0 135
-887 2 -888 3 -3 198 -2 197 -355 0 -355 0 2 -182z"/>
<path d="M4442 618 l3 -183 155 -3 c85 -1 165 0 178 3 22 5 22 7 22 185 l0
180 -180 0 -180 0 2 -182z"/>
</g>
</svg>
