<?xml version="1.0" standalone="no"?>
<!DOCTYPE svg PUBLIC "-//W3C//DTD SVG 20010904//EN"
 "http://www.w3.org/TR/2001/REC-SVG-20010904/DTD/svg10.dtd">
<svg version="1.0" xmlns="http://www.w3.org/2000/svg"
 width="633.000000pt" height="627.000000pt" viewBox="0 0 633.000000 627.000000"
 preserveAspectRatio="xMidYMid meet">

<g transform="translate(0.000000,627.000000) scale(0.100000,-0.100000)"
fill="#000000" stroke="none">
<path d="M0 3135 l0 -3135 1458 1 c1238 1 1442 3 1357 14 -293 38 -626 119
-817 199 l-37 16 -3 101 -3 100 -180 2 -180 2 -3 183 -2 182 355 0 355 0 2
-197 3 -198 888 -3 887 -2 0 -135 0 -134 -53 -16 c-141 -41 -406 -90 -587
-108 -19 -2 623 -5 1428 -5 l1462 -2 0 3135 0 3135 -1432 -1 c-1431 -1 -1433
-1 -1308 -19 273 -40 574 -122 763 -206 l87 -39 0 -387 0 -388 -180 0 -180 0
0 -175 0 -175 -177 0 -178 0 0 522 0 523 -362 2 -363 2 0 -174 0 -175 180 0
180 0 0 -350 0 -350 83 -1 c45 0 126 0 180 1 l97 1 0 -185 0 -186 -180 0 -180
0 0 -175 0 -175 -180 0 -180 0 0 -185 0 -185 -525 0 -525 0 0 -191 0 -190 175
7 175 7 0 -197 0 -196 175 0 175 0 0 -185 0 -185 -347 0 -348 0 3 190 3 190
-181 0 -180 0 0 375 0 375 -180 0 -180 0 0 720 0 720 -190 0 c-146 0 -190 3
-190 13 0 7 73 85 163 174 l162 162 465 4 c256 3 507 2 557 -1 l93 -5 2 -351
3 -351 173 -3 172 -2 0 -175 0 -175 178 2 177 3 3 344 c1 189 -1 348 -6 353
-4 4 -83 8 -175 9 l-167 2 -2 346 -3 346 -345 0 -345 0 -3 52 -3 51 128 50
c214 85 382 128 639 167 l159 23 -1442 1 -1443 1 0 -3135z m5338 2287 l172
-168 0 -82 0 -82 -175 0 -175 0 0 70 0 70 -177 2 -178 3 -3 165 c-1 90 0 170
2 177 4 10 47 13 183 13 l178 -1 173 -167z m-4560 -549 l82 -6 0 -178 0 -179
-192 0 -191 0 7 -600 7 -600 -230 0 -231 0 0 45 c0 64 28 314 46 415 48 266
147 559 275 812 33 64 42 81 129 216 l53 82 81 0 c44 0 118 -3 164 -7z m4382
-177 l0 -178 173 7 c109 5 175 11 179 19 4 6 8 84 8 174 l0 162 149 0 150 0
56 -92 c67 -107 171 -312 213 -419 27 -66 72 -196 72 -206 0 -2 -305 -2 -677
-1 l-678 3 -3 344 c-2 189 -1 350 2 358 5 12 35 14 181 11 l175 -3 0 -179z
m352 -938 c1 -13 2 -95 3 -183 l0 -160 398 4 397 4 2 -54 c5 -168 4 -458 -3
-549 -24 -314 -110 -653 -241 -950 -53 -120 -172 -340 -192 -352 -6 -4 -89 -8
-183 -8 l-173 0 0 575 0 575 -360 0 -360 0 0 193 0 193 -177 0 -178 -1 -3 110
c-2 61 0 143 3 182 l7 73 176 2 177 3 3 183 2 182 350 0 350 0 2 -22z m-1792
-913 l0 -185 180 0 180 0 0 -191 0 -190 178 3 177 3 0 -200 0 -200 -177 -3
-178 -2 0 -360 0 -360 -180 0 -180 0 0 -179 0 -178 -77 -7 c-42 -3 -123 -6
-180 -6 l-103 0 0 -95 0 -95 -180 0 -180 0 0 645 0 645 -172 0 -173 0 0 195 0
195 175 2 175 3 1 365 c0 201 1 368 2 373 1 4 162 7 357 7 l355 0 0 -185z
m-3240 -447 c0 -244 3 -453 6 -465 6 -22 9 -23 193 -25 l186 -3 0 -195 0 -195
-197 -3 -196 -2 -66 119 c-89 159 -144 280 -200 434 -74 205 -152 526 -172
715 l-7 62 227 0 226 0 0 -442z m1108 -1404 l-3 -195 -265 1 -265 1 -93 92
c-51 50 -98 100 -103 110 -6 10 -7 52 -3 102 l7 85 364 0 363 0 -2 -196z
m3922 103 l0 -93 -109 -102 -110 -102 -243 -1 -243 -1 -3 183 c-1 101 0 189 2
196 4 10 80 13 356 13 l350 0 0 -93z m-710 -477 c0 -178 0 -180 -22 -185 -13
-3 -93 -4 -178 -3 l-155 3 -3 183 -2 182 180 0 180 0 0 -180z"/>
</g>
</svg>
